<svg xmlns="http://www.w3.org/2000/svg" viewBox="0 0 520 160" role="img" aria-label="Eidos Skills Hub logo">
  <defs>
    <linearGradient id="panel" x1="0" y1="0" x2="520" y2="160" gradientUnits="userSpaceOnUse">
      <stop stop-color="#0F172A"/>
      <stop offset="1" stop-color="#1E1B4B"/>
    </linearGradient>
    <linearGradient id="mark" x1="24" y1="25" x2="136" y2="137" gradientUnits="userSpaceOnUse">
      <stop stop-color="#4F46E5"/>
      <stop offset="1" stop-color="#0EA5E9"/>
    </linearGradient>
  </defs>
  <rect width="520" height="160" rx="32" fill="url(#panel)"/>
  <rect x="24" y="24" width="112" height="112" rx="27" fill="url(#mark)"/>
  <path d="M80 35v20M80 105v20M35 80h20M105 80h20M48 48l14 14M98 98l14 14M112 48 98 62M62 98l-14 14" stroke="#C7D2FE" stroke-width="4" stroke-linecap="round" opacity="0.72"/>
  <circle cx="80" cy="35" r="5" fill="#FDE68A"/>
  <circle cx="125" cy="80" r="5" fill="#BAE6FD"/>
  <circle cx="80" cy="125" r="5" fill="#A7F3D0"/>
  <circle cx="35" cy="80" r="5" fill="#FBCFE8"/>
  <rect x="54" y="52" width="52" height="58" rx="14" fill="#F8FAFC"/>
  <path d="M65 68h30M65 79h22M65 90h16" stroke="#4F46E5" stroke-width="5" stroke-linecap="round"/>
  <circle cx="98" cy="96" r="11" fill="#0EA5E9" stroke="#F8FAFC" stroke-width="4"/>
  <path d="m106 104 8 8" stroke="#F8FAFC" stroke-width="5" stroke-linecap="round"/>
  <text x="165" y="77" font-family="Inter, ui-sans-serif, system-ui, -apple-system, BlinkMacSystemFont, Segoe UI, sans-serif" font-size="38" font-weight="760" fill="#F8FAFC">Eidos Skills Hub</text>
  <text x="168" y="108" font-family="Inter, ui-sans-serif, system-ui, sans-serif" font-size="17" font-weight="620" fill="#A5B4FC">Find · rank · trust · sync</text>
</svg>
