<svg xmlns="http://www.w3.org/2000/svg" viewBox="0 0 160 160" role="img" aria-label="Eidos Skills Hub icon">
  <defs>
    <linearGradient id="bg" x1="20" y1="14" x2="140" y2="150" gradientUnits="userSpaceOnUse">
      <stop stop-color="#312E81"/>
      <stop offset="0.52" stop-color="#4F46E5"/>
      <stop offset="1" stop-color="#0EA5E9"/>
    </linearGradient>
    <linearGradient id="card" x1="57" y1="52" x2="103" y2="108" gradientUnits="userSpaceOnUse">
      <stop stop-color="#FFFFFF"/>
      <stop offset="1" stop-color="#E0E7FF"/>
    </linearGradient>
    <filter id="shadow" x="-30%" y="-30%" width="160%" height="170%">
      <feDropShadow dx="0" dy="6" stdDeviation="6" flood-color="#111827" flood-opacity="0.28"/>
    </filter>
  </defs>
  <rect width="160" height="160" rx="36" fill="url(#bg)"/>
  <path d="M80 24v24M80 112v24M24 80h24M112 80h24M40.4 40.4l17 17M102.6 102.6l17 17M119.6 40.4l-17 17M57.4 102.6l-17 17" stroke="#C7D2FE" stroke-width="5" stroke-linecap="round" opacity="0.72"/>
  <circle cx="80" cy="24" r="6" fill="#FDE68A"/>
  <circle cx="136" cy="80" r="6" fill="#BAE6FD"/>
  <circle cx="80" cy="136" r="6" fill="#A7F3D0"/>
  <circle cx="24" cy="80" r="6" fill="#FBCFE8"/>
  <circle cx="40" cy="40" r="5" fill="#DDD6FE"/>
  <circle cx="120" cy="40" r="5" fill="#BFDBFE"/>
  <circle cx="120" cy="120" r="5" fill="#99F6E4"/>
  <circle cx="40" cy="120" r="5" fill="#FDE68A"/>
  <g filter="url(#shadow)">
    <rect x="48" y="45" width="64" height="70" rx="17" fill="#1E1B4B" opacity="0.38"/>
    <rect x="53" y="50" width="54" height="60" rx="14" fill="url(#card)"/>
    <path d="M65 67h30M65 79h23M65 91h17" stroke="#4F46E5" stroke-width="6" stroke-linecap="round"/>
    <circle cx="98" cy="94" r="13" fill="#0EA5E9" stroke="#F8FAFC" stroke-width="5"/>
    <path d="m107 103 9 9" stroke="#F8FAFC" stroke-width="6" stroke-linecap="round"/>
  </g>
</svg>
